<?xml version="1.0" encoding="UTF-8"?>
<svg width="261px" height="26px" viewBox="0 0 261 26" version="1.1" xmlns="http://www.w3.org/2000/svg" xmlns:xlink="http://www.w3.org/1999/xlink">
    <title>Artboard Copy 3</title>
    <g id="Artboard-Copy-3" stroke="none" stroke-width="1" fill="none" fill-rule="evenodd">
        <g id="FLE" transform="translate(-1.040000, 1.150000)" fill="#000000" fill-rule="nonzero">
            <path d="M2.31,25.2 C1.61,25.2 1.05,25.0133333 0.63,24.64 C0.21,24.2666667 0,23.7533333 0,23.1 L0,5.53 C0,3.89666667 0.4725,2.625 1.4175,1.715 C2.3625,0.805 3.675,0.35 5.355,0.35 L16.24,0.35 C16.94,0.35 17.4766667,0.5075 17.85,0.8225 C18.2233333,1.1375 18.41,1.58666667 18.41,2.17 C18.41,2.73 18.2175,3.1675 17.8325,3.4825 C17.4475,3.7975 16.9166667,3.955 16.24,3.955 L6.16,3.955 C5.69333333,3.955 5.32583333,4.10666667 5.0575,4.41 C4.78916667,4.71333333 4.655,5.13333333 4.655,5.67 L4.655,10.885 L13.58,10.885 C14.28,10.885 14.8166667,11.0425 15.19,11.3575 C15.5633333,11.6725 15.75,12.1216667 15.75,12.705 C15.75,13.265 15.5575,13.7025 15.1725,14.0175 C14.7875,14.3325 14.2566667,14.49 13.58,14.49 L4.655,14.49 L4.655,23.1 C4.655,23.73 4.43916667,24.2375 4.0075,24.6225 C3.57583333,25.0075 3.01,25.2 2.31,25.2 Z" id="Path"></path>
            <path d="M26.23,24.85 C24.4566667,24.85 23.08,24.3833333 22.1,23.45 C21.12,22.5166667 20.63,21.21 20.63,19.53 L20.63,2.1 C20.63,1.44666667 20.84,0.933333333 21.26,0.56 C21.68,0.186666667 22.24,0 22.94,0 C23.64,0 24.2058333,0.1925 24.6375,0.5775 C25.0691667,0.9625 25.285,1.47 25.285,2.1 L25.285,19.53 C25.285,20.0666667 25.4191667,20.4866667 25.6875,20.79 C25.9558333,21.0933333 26.3233333,21.245 26.79,21.245 L37.99,21.245 C38.69,21.245 39.2266667,21.4025 39.6,21.7175 C39.9733333,22.0325 40.16,22.4816667 40.16,23.065 C40.16,23.625 39.9675,24.0625 39.5825,24.3775 C39.1975,24.6925 38.6666667,24.85 37.99,24.85 L26.23,24.85 Z" id="Path"></path>
            <path d="M47.63,24.85 C45.8566667,24.85 44.48,24.3833333 43.5,23.45 C42.52,22.5166667 42.03,21.21 42.03,19.53 L42.03,5.53 C42.03,3.89666667 42.5025,2.625 43.4475,1.715 C44.3925,0.805 45.705,0.35 47.385,0.35 L58.27,0.35 C58.97,0.35 59.5066667,0.5075 59.88,0.8225 C60.2533333,1.1375 60.44,1.58666667 60.44,2.17 C60.44,2.73 60.2475,3.1675 59.8625,3.4825 C59.4775,3.7975 58.9466667,3.955 58.27,3.955 L48.19,3.955 C47.7233333,3.955 47.3558333,4.10666667 47.0875,4.41 C46.8191667,4.71333333 46.685,5.13333333 46.685,5.67 L46.685,10.535 L55.61,10.535 C56.31,10.535 56.8466667,10.6925 57.22,11.0075 C57.5933333,11.3225 57.78,11.7716667 57.78,12.355 C57.78,12.915 57.5875,13.3525 57.2025,13.6675 C56.8175,13.9825 56.2866667,14.14 55.61,14.14 L46.685,14.14 L46.685,19.53 C46.685,20.0666667 46.8191667,20.4866667 47.0875,20.79 C47.3558333,21.0933333 47.7233333,21.245 48.19,21.245 L59.04,21.245 C59.74,21.245 60.2766667,21.4025 60.65,21.7175 C61.0233333,22.0325 61.21,22.4816667 61.21,23.065 C61.21,23.625 61.0175,24.0625 60.6325,24.3775 C60.2475,24.6925 59.7166667,24.85 59.04,24.85 L47.63,24.85 Z" id="Path"></path>
        </g>
        <g id="ABLE" transform="translate(94.785000, 1.150000)" fill="#860EC3" fill-rule="nonzero">
            <path d="M2.31,25.165 C1.61,25.165 1.05,24.9783333 0.63,24.605 C0.21,24.2316667 0,23.7183333 0,23.065 L0,10.815 C0,7.43166667 0.968333333,4.78333333 2.905,2.87 C4.84166667,0.956666667 7.53666667,0 10.99,0 C13.2533333,0 15.2133333,0.431666667 16.87,1.295 C18.5266667,2.15833333 19.7925,3.40666667 20.6675,5.04 C21.5425,6.67333333 21.98,8.59833333 21.98,10.815 L21.98,23.065 C21.98,23.7183333 21.77,24.2316667 21.35,24.605 C20.93,24.9783333 20.37,25.165 19.67,25.165 C18.97,25.165 18.4041667,24.9725 17.9725,24.5875 C17.5408333,24.2025 17.325,23.695 17.325,23.065 L17.325,17.36 L4.655,17.36 L4.655,23.065 C4.655,23.695 4.43916667,24.2025 4.0075,24.5875 C3.57583333,24.9725 3.01,25.165 2.31,25.165 Z M17.325,13.755 L17.325,10.71 C17.325,8.37666667 16.7941667,6.62083333 15.7325,5.4425 C14.6708333,4.26416667 13.09,3.675 10.99,3.675 C6.76666667,3.675 4.655,6.02 4.655,10.71 L4.655,13.755 L17.325,13.755 Z" id="Shape"></path>
            <path d="M31.325,24.85 C29.5516667,24.85 28.175,24.3833333 27.195,23.45 C26.215,22.5166667 25.725,21.21 25.725,19.53 L25.725,5.53 C25.725,3.89666667 26.1975,2.625 27.1425,1.715 C28.0875,0.805 29.4,0.35 31.08,0.35 L39.165,0.35 C41.8716667,0.35 43.96,0.921666667 45.43,2.065 C46.9,3.20833333 47.635,4.865 47.635,7.035 C47.635,8.10833333 47.32,9.10583333 46.69,10.0275 C46.06,10.9491667 45.2433333,11.6433333 44.24,12.11 L44.24,12.145 C45.36,12.5883333 46.2758333,13.2941667 46.9875,14.2625 C47.6991667,15.2308333 48.055,16.275 48.055,17.395 C48.055,19.7283333 47.3025,21.5541667 45.7975,22.8725 C44.2925,24.1908333 42.2216667,24.85 39.585,24.85 L31.325,24.85 Z M39.165,10.465 C40.355,10.465 41.2825,10.1733333 41.9475,9.59 C42.6125,9.00666667 42.945,8.16666667 42.945,7.07 C42.945,5.99666667 42.63,5.20333333 42,4.69 C41.37,4.17666667 40.425,3.92 39.165,3.92 L31.815,3.92 C31.3483333,3.92 30.9808333,4.07166667 30.7125,4.375 C30.4441667,4.67833333 30.31,5.09833333 30.31,5.635 L30.31,10.465 L39.165,10.465 Z M39.165,21.28 C41.965,21.28 43.365,20.0083333 43.365,17.465 C43.365,16.3683333 42.9975,15.5166667 42.2625,14.91 C41.5275,14.3033333 40.495,14 39.165,14 L30.31,14 L30.31,19.565 C30.31,20.1016667 30.4441667,20.5216667 30.7125,20.825 C30.9808333,21.1283333 31.3483333,21.28 31.815,21.28 L39.165,21.28 Z" id="Shape"></path>
            <path d="M57.225,24.85 C55.4516667,24.85 54.075,24.3833333 53.095,23.45 C52.115,22.5166667 51.625,21.21 51.625,19.53 L51.625,2.1 C51.625,1.44666667 51.835,0.933333333 52.255,0.56 C52.675,0.186666667 53.235,0 53.935,0 C54.635,0 55.2008333,0.1925 55.6325,0.5775 C56.0641667,0.9625 56.28,1.47 56.28,2.1 L56.28,19.53 C56.28,20.0666667 56.4141667,20.4866667 56.6825,20.79 C56.9508333,21.0933333 57.3183333,21.245 57.785,21.245 L68.985,21.245 C69.685,21.245 70.2216667,21.4025 70.595,21.7175 C70.9683333,22.0325 71.155,22.4816667 71.155,23.065 C71.155,23.625 70.9625,24.0625 70.5775,24.3775 C70.1925,24.6925 69.6616667,24.85 68.985,24.85 L57.225,24.85 Z" id="Path"></path>
            <path d="M78.625,24.85 C76.8516667,24.85 75.475,24.3833333 74.495,23.45 C73.515,22.5166667 73.025,21.21 73.025,19.53 L73.025,5.53 C73.025,3.89666667 73.4975,2.625 74.4425,1.715 C75.3875,0.805 76.7,0.35 78.38,0.35 L89.265,0.35 C89.965,0.35 90.5016667,0.5075 90.875,0.8225 C91.2483333,1.1375 91.435,1.58666667 91.435,2.17 C91.435,2.73 91.2425,3.1675 90.8575,3.4825 C90.4725,3.7975 89.9416667,3.955 89.265,3.955 L79.185,3.955 C78.7183333,3.955 78.3508333,4.10666667 78.0825,4.41 C77.8141667,4.71333333 77.68,5.13333333 77.68,5.67 L77.68,10.535 L86.605,10.535 C87.305,10.535 87.8416667,10.6925 88.215,11.0075 C88.5883333,11.3225 88.775,11.7716667 88.775,12.355 C88.775,12.915 88.5825,13.3525 88.1975,13.6675 C87.8125,13.9825 87.2816667,14.14 86.605,14.14 L77.68,14.14 L77.68,19.53 C77.68,20.0666667 77.8141667,20.4866667 78.0825,20.79 C78.3508333,21.0933333 78.7183333,21.245 79.185,21.245 L90.035,21.245 C90.735,21.245 91.2716667,21.4025 91.645,21.7175 C92.0183333,22.0325 92.205,22.4816667 92.205,23.065 C92.205,23.625 92.0125,24.0625 91.6275,24.3775 C91.2425,24.6925 90.7116667,24.85 90.035,24.85 L78.625,24.85 Z" id="Path"></path>
        </g>
        <path d="M74.5145539,21.2359808 L66.7166216,27.0402783 C65.8437439,27.6899944 64.6094378,27.5090861 63.9597217,26.6362084 C63.440035,25.938022 63.440035,24.9815648 63.9597217,24.2833784 L69.7640192,16.4854461 C71.0828537,14.7136241 71.0828537,12.2863759 69.7640192,10.5145539 L63.9597217,2.71662159 C63.3100056,1.84374389 63.4909139,0.609437767 64.3637916,-0.0402782922 C65.061978,-0.55996499 66.0184352,-0.55996499 66.7166216,-0.0402782922 L74.5145539,5.76401919 C76.2863759,7.08285365 78.7136241,7.08285365 80.4854461,5.76401919 L88.2833784,-0.0402782922 C89.1562561,-0.689994351 90.3905622,-0.509086097 91.0402783,0.363791604 C91.559965,1.06197802 91.559965,2.01843517 91.0402783,2.71662159 L85.2359808,10.5145539 C83.9171463,12.2863759 83.9171463,14.7136241 85.2359808,16.4854461 L91.0402783,24.2833784 C91.6899944,25.1562561 91.5090861,26.3905622 90.6362084,27.0402783 C89.938022,27.559965 88.9815648,27.559965 88.2833784,27.0402783 L80.4854461,21.2359808 C78.7136241,19.9171463 76.2863759,19.9171463 74.5145539,21.2359808 Z" id="Star" fill="#000000"></path>
        <g id="MEDIA" transform="translate(193.240000, 11.800000)" fill="#000000" fill-rule="nonzero">
            <path d="M1.14,14.4 C0.793333333,14.4 0.516666667,14.3066667 0.31,14.12 C0.103333333,13.9333333 0,13.6733333 0,13.34 L0,4.82 C0,3.31333333 0.43,2.13333333 1.29,1.28 C2.15,0.426666667 3.32666667,0 4.82,0 C5.58,0 6.29666667,0.193333333 6.97,0.58 C7.64333333,0.966666667 8.19333333,1.5 8.62,2.18 C9.04666667,1.48666667 9.59333333,0.95 10.26,0.57 C10.9266667,0.19 11.66,0 12.46,0 C13.9666667,0 15.1433333,0.426666667 15.99,1.28 C16.8366667,2.13333333 17.26,3.31333333 17.26,4.82 L17.26,13.34 C17.26,13.66 17.1566667,13.9166667 16.95,14.11 C16.7433333,14.3033333 16.4666667,14.4 16.12,14.4 C15.7733333,14.4 15.4966667,14.3066667 15.29,14.12 C15.0833333,13.9333333 14.98,13.6733333 14.98,13.34 L14.98,4.82 C14.98,3.79333333 14.7766667,3.04 14.37,2.56 C13.9633333,2.08 13.3,1.84 12.38,1.84 C11.54,1.84 10.8933333,2.1 10.44,2.62 C9.98666667,3.14 9.76,3.87333333 9.76,4.82 L9.76,13.34 C9.76,13.6733333 9.65666667,13.9333333 9.45,14.12 C9.24333333,14.3066667 8.96666667,14.4 8.62,14.4 C8.27333333,14.4 8.00333333,14.3066667 7.81,14.12 C7.61666667,13.9333333 7.52,13.6733333 7.52,13.34 L7.52,4.82 C7.52,3.88666667 7.28666667,3.15666667 6.82,2.63 C6.35333333,2.10333333 5.71333333,1.84 4.9,1.84 C3.96666667,1.84 3.29666667,2.08 2.89,2.56 C2.48333333,3.04 2.28,3.79333333 2.28,4.82 L2.28,13.34 C2.28,13.66 2.17666667,13.9166667 1.97,14.11 C1.76333333,14.3033333 1.48666667,14.4 1.14,14.4 Z" id="Path"></path>
            <path d="M22.78,14.2 C21.8333333,14.2 21.0966667,13.95 20.57,13.45 C20.0433333,12.95 19.78,12.2533333 19.78,11.36 L19.78,2.98 C19.78,2.11333333 20.0333333,1.43333333 20.54,0.94 C21.0466667,0.446666667 21.7533333,0.2 22.66,0.2 L28.88,0.2 C29.2266667,0.2 29.4933333,0.276666667 29.68,0.43 C29.8666667,0.583333333 29.96,0.806666667 29.96,1.1 C29.96,1.38 29.8666667,1.59666667 29.68,1.75 C29.4933333,1.90333333 29.2266667,1.98 28.88,1.98 L22.98,1.98 C22.6866667,1.98 22.46,2.07333333 22.3,2.26 C22.14,2.44666667 22.06,2.7 22.06,3.02 L22.06,6.16 L27.36,6.16 C27.7066667,6.16 27.9733333,6.23666667 28.16,6.39 C28.3466667,6.54333333 28.44,6.76666667 28.44,7.06 C28.44,7.34 28.3466667,7.55666667 28.16,7.71 C27.9733333,7.86333333 27.7066667,7.94 27.36,7.94 L22.06,7.94 L22.06,11.38 C22.06,11.7 22.14,11.9533333 22.3,12.14 C22.46,12.3266667 22.6866667,12.42 22.98,12.42 L29.32,12.42 C29.6666667,12.42 29.9333333,12.4966667 30.12,12.65 C30.3066667,12.8033333 30.4,13.0266667 30.4,13.32 C30.4,13.6 30.3066667,13.8166667 30.12,13.97 C29.9333333,14.1233333 29.6666667,14.2 29.32,14.2 L22.78,14.2 Z" id="Path"></path>
            <path d="M35.66,14.2 C34.7133333,14.2 33.9766667,13.95 33.45,13.45 C32.9233333,12.95 32.66,12.2533333 32.66,11.36 L32.66,2.98 C32.66,2.11333333 32.9133333,1.43333333 33.42,0.94 C33.9266667,0.446666667 34.6333333,0.2 35.54,0.2 L38.34,0.2 C39.8333333,0.2 41.1233333,0.483333333 42.21,1.05 C43.2966667,1.61666667 44.1333333,2.42666667 44.72,3.48 C45.3066667,4.53333333 45.6,5.78 45.6,7.22 C45.6,8.66 45.31,9.90333333 44.73,10.95 C44.15,11.9966667 43.3133333,12.8 42.22,13.36 C41.1266667,13.92 39.8333333,14.2 38.34,14.2 L35.66,14.2 Z M38.14,12.42 C39.8466667,12.42 41.13,11.9833333 41.99,11.11 C42.85,10.2366667 43.28,8.94 43.28,7.22 C43.28,5.5 42.8466667,4.19666667 41.98,3.31 C41.1133333,2.42333333 39.8333333,1.98 38.14,1.98 L35.86,1.98 C35.5666667,1.98 35.34,2.07333333 35.18,2.26 C35.02,2.44666667 34.94,2.7 34.94,3.02 L34.94,11.38 C34.94,11.7 35.02,11.9533333 35.18,12.14 C35.34,12.3266667 35.5666667,12.42 35.86,12.42 L38.14,12.42 Z" id="Shape"></path>
            <path d="M49.6,14.4 C49.2533333,14.4 48.9766667,14.3066667 48.77,14.12 C48.5633333,13.9333333 48.46,13.6733333 48.46,13.34 L48.46,1.06 C48.46,0.726666667 48.5633333,0.466666667 48.77,0.28 C48.9766667,0.0933333333 49.2533333,0 49.6,0 C49.9333333,0 50.2066667,0.0966666667 50.42,0.29 C50.6333333,0.483333333 50.74,0.74 50.74,1.06 L50.74,13.34 C50.74,13.66 50.6333333,13.9166667 50.42,14.11 C50.2066667,14.3033333 49.9333333,14.4 49.6,14.4 Z" id="Path"></path>
            <path d="M54.92,14.38 C54.5733333,14.38 54.3,14.2866667 54.1,14.1 C53.9,13.9133333 53.8,13.6533333 53.8,13.32 L53.8,6.04 C53.8,4.14666667 54.34,2.66666667 55.42,1.6 C56.5,0.533333333 58,0 59.92,0 C61.1733333,0 62.26,0.243333333 63.18,0.73 C64.1,1.21666667 64.8033333,1.91333333 65.29,2.82 C65.7766667,3.72666667 66.02,4.8 66.02,6.04 L66.02,13.32 C66.02,13.6533333 65.92,13.9133333 65.72,14.1 C65.52,14.2866667 65.2466667,14.38 64.9,14.38 C64.5533333,14.38 64.2733333,14.2833333 64.06,14.09 C63.8466667,13.8966667 63.74,13.64 63.74,13.32 L63.74,9.64 L56.08,9.64 L56.08,13.32 C56.08,13.64 55.9733333,13.8966667 55.76,14.09 C55.5466667,14.2833333 55.2666667,14.38 54.92,14.38 Z M63.74,7.86 L63.74,5.98 C63.74,4.62 63.4166667,3.58666667 62.77,2.88 C62.1233333,2.17333333 61.1733333,1.82 59.92,1.82 C58.6533333,1.82 57.6966667,2.17 57.05,2.87 C56.4033333,3.57 56.08,4.60666667 56.08,5.98 L56.08,7.86 L63.74,7.86 Z" id="Shape"></path>
        </g>
    </g>
</svg>