<?xml version="1.0" encoding="UTF-8"?>
<svg width="243px" height="59px" viewBox="0 0 243 59" version="1.1" xmlns="http://www.w3.org/2000/svg" xmlns:xlink="http://www.w3.org/1999/xlink">
    <title>Logo</title>
    <g id="Logo" stroke="none" stroke-width="1" fill="none" fill-rule="evenodd">
        <g id="Group" transform="translate(0.000000, -24.000000)">
            <g id="FLE" transform="translate(0.000000, 23.000000)" fill="#000000" fill-rule="nonzero">
                <path d="M2.98137559,33 C2.07792844,33 1.35517072,32.7555556 0.813102434,32.2666667 C0.271034145,31.7777778 0,31.1055556 0,30.25 L0,7.24166667 C0,5.10277778 0.609826826,3.4375 1.82948048,2.24583333 C3.04913413,1.05416667 4.74309753,0.458333333 6.91137069,0.458333333 L20.9599739,0.458333333 C21.863421,0.458333333 22.5560638,0.664583333 23.0379023,1.07708333 C23.5197408,1.48958333 23.76066,2.07777778 23.76066,2.84166667 C23.76066,3.575 23.5122121,4.14791667 23.0153161,4.56041667 C22.5184202,4.97291667 21.8333061,5.17916667 20.9599739,5.17916667 L7.95033491,5.17916667 C7.34803681,5.17916667 6.87372706,5.37777778 6.52740565,5.775 C6.18108425,6.17222222 6.00792354,6.72222222 6.00792354,7.425 L6.00792354,14.2541667 L17.5268747,14.2541667 C18.4303218,14.2541667 19.1229647,14.4604167 19.6048031,14.8729167 C20.0866416,15.2854167 20.3275609,15.8736111 20.3275609,16.6375 C20.3275609,17.3708333 20.0791129,17.94375 19.582217,18.35625 C19.085321,18.76875 18.4002069,18.975 17.5268747,18.975 L6.00792354,18.975 L6.00792354,30.25 C6.00792354,31.075 5.72936067,31.7395833 5.17223493,32.24375 C4.61510919,32.7479167 3.88482274,33 2.98137559,33 Z" id="Path"></path>
                <path d="M33.8534553,32.5416667 C31.5647225,32.5416667 29.7879431,31.9305556 28.5231171,30.7083333 C27.2582911,29.4861111 26.6258781,27.775 26.6258781,25.575 L26.6258781,2.75 C26.6258781,1.89444444 26.8969123,1.22222222 27.4389806,0.733333333 C27.9810488,0.244444444 28.7038066,0 29.6072537,0 C30.5107009,0 31.2409873,0.252083333 31.7981131,0.75625 C32.3552388,1.26041667 32.6338017,1.925 32.6338017,2.75 L32.6338017,25.575 C32.6338017,26.2777778 32.8069624,26.8277778 33.1532838,27.225 C33.4996052,27.6222222 33.9739149,27.8208333 34.576213,27.8208333 L49.0313674,27.8208333 C49.9348146,27.8208333 50.6274574,28.0270833 51.1092959,28.4395833 C51.5911343,28.8520833 51.8320536,29.4402778 51.8320536,30.2041667 C51.8320536,30.9375 51.5836056,31.5104167 51.0867097,31.9229167 C50.5898138,32.3354167 49.9046997,32.5416667 49.0313674,32.5416667 L33.8534553,32.5416667 Z" id="Path"></path>
                <path d="M61.4731253,32.5416667 C59.1843925,32.5416667 57.4076131,31.9305556 56.1427871,30.7083333 C54.8779611,29.4861111 54.2455481,27.775 54.2455481,25.575 L54.2455481,7.24166667 C54.2455481,5.10277778 54.8553749,3.4375 56.0750286,2.24583333 C57.2946822,1.05416667 58.9886456,0.458333333 61.1569188,0.458333333 L75.205522,0.458333333 C76.1089691,0.458333333 76.8016119,0.664583333 77.2834504,1.07708333 C77.7652889,1.48958333 78.0062081,2.07777778 78.0062081,2.84166667 C78.0062081,3.575 77.7577602,4.14791667 77.2608642,4.56041667 C76.7639683,4.97291667 76.0788542,5.17916667 75.205522,5.17916667 L62.195883,5.17916667 C61.5935849,5.17916667 61.1192752,5.37777778 60.7729538,5.775 C60.4266324,6.17222222 60.2534717,6.72222222 60.2534717,7.425 L60.2534717,13.7958333 L71.7724228,13.7958333 C72.67587,13.7958333 73.3685128,14.0020833 73.8503512,14.4145833 C74.3321897,14.8270833 74.573109,15.4152778 74.573109,16.1791667 C74.573109,16.9125 74.324661,17.4854167 73.8277651,17.8979167 C73.3308691,18.3104167 72.6457551,18.5166667 71.7724228,18.5166667 L60.2534717,18.5166667 L60.2534717,25.575 C60.2534717,26.2777778 60.4266324,26.8277778 60.7729538,27.225 C61.1192752,27.6222222 61.5935849,27.8208333 62.195883,27.8208333 L76.1993138,27.8208333 C77.102761,27.8208333 77.7954038,28.0270833 78.2772423,28.4395833 C78.7590808,28.8520833 79,29.4402778 79,30.2041667 C79,30.9375 78.751552,31.5104167 78.2546561,31.9229167 C77.7577602,32.3354167 77.0726461,32.5416667 76.1993138,32.5416667 L61.4731253,32.5416667 Z" id="Path"></path>
            </g>
            <g id="ABLE" transform="translate(124.000000, 23.000000)" fill="#860EC3" fill-rule="nonzero">
                <path d="M2.98129169,33 C2.07786996,33 1.35513259,32.7552156 0.813079551,32.2656467 C0.271026517,31.7760779 2.84217094e-14,31.1029207 2.84217094e-14,30.2461752 L2.84217094e-14,14.1821975 C2.84217094e-14,9.74547983 1.24973338,6.27260083 3.74920015,3.7635605 C6.24866692,1.25452017 9.72684055,0 14.1837211,0 C17.1047846,0 19.6343655,0.566063978 21.7724635,1.69819193 C23.9105616,2.83031989 25.5442492,4.46731572 26.6735264,6.60917942 C27.8028035,8.75104312 28.3674421,11.2753825 28.3674421,14.1821975 L28.3674421,30.2461752 C28.3674421,31.1029207 28.0964156,31.7760779 27.5543626,32.2656467 C27.0123095,32.7552156 26.2895721,33 25.3861504,33 C24.4827287,33 23.7524628,32.7475661 23.1953527,32.2426982 C22.6382427,31.7378303 22.3596877,31.0723227 22.3596877,30.2461752 L22.3596877,22.7649513 L6.00775446,22.7649513 L6.00775446,30.2461752 C6.00775446,31.0723227 5.72919943,31.7378303 5.17208937,32.2426982 C4.6149793,32.7475661 3.88471341,33 2.98129169,33 Z M22.3596877,18.0375522 L22.3596877,14.0445063 C22.3596877,10.984701 21.6745928,8.6821975 20.3044032,7.13699583 C18.9342136,5.59179416 16.8939862,4.81919332 14.1837211,4.81919332 C8.73307666,4.81919332 6.00775446,7.89429764 6.00775446,14.0445063 L6.00775446,18.0375522 L22.3596877,18.0375522 Z" id="Shape"></path>
                <path d="M40.4281221,32.5869263 C38.1394538,32.5869263 36.3627244,31.9749652 35.097934,30.7510431 C33.8331435,29.527121 33.2007483,27.81363 33.2007483,25.6105702 L33.2007483,7.25173853 C33.2007483,5.10987483 33.810558,3.44228095 35.0301773,2.24895688 C36.2497966,1.05563282 37.9437124,0.458970793 40.1119245,0.458970793 L50.5464454,0.458970793 C54.0396761,0.458970793 56.7348842,1.20862309 58.6320698,2.70792768 C60.5292555,4.20723227 61.4778483,6.37969402 61.4778483,9.22531293 C61.4778483,10.6328234 61.0713085,11.9408901 60.2582289,13.1495132 C59.4451494,14.3581363 58.3911574,15.2684284 57.0962529,15.8803894 L57.0962529,15.9262865 C58.5417277,16.5076495 59.7237044,17.4332406 60.6421832,18.7030598 C61.5606619,19.972879 62.0199013,21.3421419 62.0199013,22.8108484 C62.0199013,25.8706537 61.048723,28.2649513 59.1063662,29.9937413 C57.1640095,31.7225313 54.4913869,32.5869263 51.0884985,32.5869263 L40.4281221,32.5869263 Z M50.5464454,13.7232267 C52.0822624,13.7232267 53.2792961,13.340751 54.1375468,12.5757997 C54.9957974,11.8108484 55.4249227,10.7093185 55.4249227,9.27121001 C55.4249227,7.86369958 55.018383,6.82336579 54.2053034,6.15020862 C53.3922238,5.47705146 52.1726045,5.14047288 50.5464454,5.14047288 L41.0605173,5.14047288 C40.4582362,5.14047288 39.9839398,5.33936022 39.6376281,5.73713491 C39.2913165,6.1349096 39.1181606,6.68567455 39.1181606,7.38942976 L39.1181606,13.7232267 L50.5464454,13.7232267 Z M50.5464454,27.9054242 C54.1601323,27.9054242 55.9669758,26.2378303 55.9669758,22.9026426 C55.9669758,21.4645341 55.4926794,20.3477051 54.5440865,19.5521558 C53.5954937,18.7566064 52.2629467,18.3588317 50.5464454,18.3588317 L39.1181606,18.3588317 L39.1181606,25.6564673 C39.1181606,26.3602225 39.2913165,26.9109875 39.6376281,27.3087622 C39.9839398,27.7065369 40.4582362,27.9054242 41.0605173,27.9054242 L50.5464454,27.9054242 Z" id="Shape"></path>
                <path d="M73.8547259,32.5869263 C71.5660575,32.5869263 69.7893281,31.9749652 68.5245377,30.7510431 C67.2597473,29.527121 66.6273521,27.81363 66.6273521,25.6105702 L66.6273521,2.75382476 C66.6273521,1.89707928 66.8983786,1.22392211 67.4404316,0.734353268 C67.9824847,0.244784423 68.7052221,0 69.6086438,0 C70.5120655,0 71.2423314,0.252433936 71.7994415,0.757301808 C72.3565515,1.26216968 72.6351066,1.92767733 72.6351066,2.75382476 L72.6351066,25.6105702 C72.6351066,26.3143255 72.8082624,26.8650904 73.154574,27.2628651 C73.5008857,27.6606398 73.9751821,27.8595271 74.5774633,27.8595271 L89.0322108,27.8595271 C89.9356326,27.8595271 90.6282559,28.066064 91.1100808,28.4791377 C91.5919057,28.8922114 91.8328182,29.4812239 91.8328182,30.2461752 C91.8328182,30.9805285 91.5843772,31.554242 91.0874953,31.9673157 C90.5906133,32.3803894 89.9055185,32.5869263 89.0322108,32.5869263 L73.8547259,32.5869263 Z" id="Path"></path>
                <path d="M101.473619,32.5869263 C99.1849502,32.5869263 97.4082208,31.9749652 96.1434304,30.7510431 C94.87864,29.527121 94.2462448,27.81363 94.2462448,25.6105702 L94.2462448,7.25173853 C94.2462448,5.10987483 94.8560544,3.44228095 96.0756738,2.24895688 C97.2952931,1.05563282 98.9892088,0.458970793 101.157421,0.458970793 L115.205629,0.458970793 C116.10905,0.458970793 116.801674,0.66550765 117.283499,1.07858136 C117.765324,1.49165508 118.006236,2.08066759 118.006236,2.84561892 C118.006236,3.57997218 117.757795,4.15368567 117.260913,4.56675939 C116.764031,4.9798331 116.078936,5.18636996 115.205629,5.18636996 L102.196356,5.18636996 C101.594075,5.18636996 101.119778,5.3852573 100.773467,5.78303199 C100.427155,6.18080668 100.253999,6.73157163 100.253999,7.43532684 L100.253999,13.8150209 L111.772626,13.8150209 C112.676048,13.8150209 113.368671,14.0215577 113.850496,14.4346314 C114.332321,14.8477051 114.573234,15.4367177 114.573234,16.201669 C114.573234,16.9360223 114.324793,17.5097357 113.827911,17.9228095 C113.331029,18.3358832 112.645934,18.54242 111.772626,18.54242 L100.253999,18.54242 L100.253999,25.6105702 C100.253999,26.3143255 100.427155,26.8650904 100.773467,27.2628651 C101.119778,27.6606398 101.594075,27.8595271 102.196356,27.8595271 L116.199393,27.8595271 C117.102814,27.8595271 117.795438,28.066064 118.277263,28.4791377 C118.759088,28.8922114 119,29.4812239 119,30.2461752 C119,30.9805285 118.751559,31.554242 118.254677,31.9673157 C117.757795,32.3803894 117.0727,32.5869263 116.199393,32.5869263 L101.473619,32.5869263 Z" id="Path"></path>
            </g>
            <g id="MEDIA" transform="translate(73.000000, 64.000000)" fill="#000000" fill-rule="nonzero">
                <path d="M1.46773705,19 C1.02140765,19 0.665202464,18.8768519 0.399121478,18.6305556 C0.133040493,18.3842593 0,18.0412037 0,17.6013889 L0,6.35972222 C0,4.37175926 0.553620115,2.81481481 1.66086035,1.68888889 C2.76810058,0.562962963 4.28304554,0 6.20569524,0 C7.18418661,0 8.1068868,0.255092593 8.97379582,0.765277778 C9.84070484,1.27546296 10.5488236,1.97916667 11.0981521,2.87638889 C11.6474806,1.96157407 12.3513077,1.25347222 13.2096334,0.752083333 C14.0679592,0.250694444 15.0121175,0 16.0421085,0 C17.9819247,0 19.4968696,0.562962963 20.5869434,1.68888889 C21.6770171,2.81481481 22.2220539,4.37175926 22.2220539,6.35972222 L22.2220539,17.6013889 C22.2220539,18.0236111 22.0890134,18.3622685 21.8229324,18.6173611 C21.5568515,18.8724537 21.2006463,19 20.7543169,19 C20.3079875,19 19.9517823,18.8768519 19.6857013,18.6305556 C19.4196203,18.3842593 19.2865798,18.0412037 19.2865798,17.6013889 L19.2865798,6.35972222 C19.2865798,5.00509259 19.0247905,4.01111111 18.5012118,3.37777778 C17.977633,2.74444444 17.1235989,2.42777778 15.9391094,2.42777778 C14.8576189,2.42777778 14.0250429,2.77083333 13.4413814,3.45694444 C12.8577199,4.14305556 12.5658891,5.11064815 12.5658891,6.35972222 L12.5658891,17.6013889 C12.5658891,18.0412037 12.4328486,18.3842593 12.1667676,18.6305556 C11.9006867,18.8768519 11.5444815,19 11.0981521,19 C10.6518227,19 10.3042007,18.8768519 10.0552863,18.6305556 C9.80637181,18.3842593 9.68191457,18.0412037 9.68191457,17.6013889 L9.68191457,6.35972222 C9.68191457,5.12824074 9.38150056,4.1650463 8.78067252,3.47013889 C8.17984449,2.77523148 7.35585176,2.42777778 6.30869434,2.42777778 C5.10703827,2.42777778 4.24442088,2.74444444 3.72084217,3.37777778 C3.19726346,4.01111111 2.9354741,5.00509259 2.9354741,6.35972222 L2.9354741,17.6013889 C2.9354741,18.0236111 2.80243361,18.3622685 2.53635262,18.6173611 C2.27027163,18.8724537 1.91406644,19 1.46773705,19 Z" id="Path"></path>
                <path d="M29.3289912,18.7361111 C28.1101686,18.7361111 27.1617187,18.40625 26.4836413,17.7465278 C25.805564,17.0868056 25.4665253,16.1675926 25.4665253,14.9888889 L25.4665253,3.93194444 C25.4665253,2.78842593 25.7926891,1.8912037 26.4450167,1.24027778 C27.0973442,0.589351852 28.0071695,0.263888889 29.1744926,0.263888889 L37.1826719,0.263888889 C37.6290013,0.263888889 37.9723316,0.365046296 38.2126628,0.567361111 C38.452994,0.769675926 38.5731596,1.06435185 38.5731596,1.45138889 C38.5731596,1.82083333 38.452994,2.10671296 38.2126628,2.30902778 C37.9723316,2.51134259 37.6290013,2.6125 37.1826719,2.6125 L29.5864889,2.6125 C29.2088256,2.6125 28.9169949,2.73564815 28.7109967,2.98194444 C28.5049985,3.22824074 28.4019994,3.5625 28.4019994,3.98472222 L28.4019994,8.12777778 L35.2256892,8.12777778 C35.6720186,8.12777778 36.0153489,8.22893519 36.2556801,8.43125 C36.4960113,8.63356481 36.6161769,8.92824074 36.6161769,9.31527778 C36.6161769,9.68472222 36.4960113,9.97060185 36.2556801,10.1729167 C36.0153489,10.3752315 35.6720186,10.4763889 35.2256892,10.4763889 L28.4019994,10.4763889 L28.4019994,15.0152778 C28.4019994,15.4375 28.5049985,15.7717593 28.7109967,16.0180556 C28.9169949,16.2643519 29.2088256,16.3875 29.5864889,16.3875 L37.7491669,16.3875 C38.1954963,16.3875 38.5388266,16.4886574 38.7791578,16.6909722 C39.019489,16.893287 39.1396547,17.187963 39.1396547,17.575 C39.1396547,17.9444444 39.019489,18.2303241 38.7791578,18.4326389 C38.5388266,18.6349537 38.1954963,18.7361111 37.7491669,18.7361111 L29.3289912,18.7361111 Z" id="Path"></path>
                <path d="M45.9118449,18.7361111 C44.6930223,18.7361111 43.7445724,18.40625 43.066495,17.7465278 C42.3884177,17.0868056 42.049379,16.1675926 42.049379,14.9888889 L42.049379,3.93194444 C42.049379,2.78842593 42.3755428,1.8912037 43.0278703,1.24027778 C43.6801979,0.589351852 44.5900232,0.263888889 45.7573463,0.263888889 L49.3623145,0.263888889 C51.2849642,0.263888889 52.9458245,0.637731481 54.3448955,1.38541667 C55.7439665,2.13310185 56.8211653,3.20185185 57.576492,4.59166667 C58.3318186,5.98148148 58.709482,7.62638889 58.709482,9.52638889 C58.709482,11.4263889 58.3361103,13.0668981 57.5893669,14.4479167 C56.8426234,15.8289352 55.7654246,16.8888889 54.3577704,17.6277778 C52.9501161,18.3666667 51.2849642,18.7361111 49.3623145,18.7361111 L45.9118449,18.7361111 Z M49.1048167,16.3875 C51.3021307,16.3875 52.9544078,15.8113426 54.061648,14.6590278 C55.1688882,13.506713 55.7225083,11.7958333 55.7225083,9.52638889 C55.7225083,7.25694444 55.1645966,5.53726852 54.0487731,4.36736111 C52.9329496,3.1974537 51.2849642,2.6125 49.1048167,2.6125 L46.1693426,2.6125 C45.7916793,2.6125 45.4998485,2.73564815 45.2938503,2.98194444 C45.0878522,3.22824074 44.9848531,3.5625 44.9848531,3.98472222 L44.9848531,15.0152778 C44.9848531,15.4375 45.0878522,15.7717593 45.2938503,16.0180556 C45.4998485,16.2643519 45.7916793,16.3875 46.1693426,16.3875 L49.1048167,16.3875 Z" id="Shape"></path>
                <path d="M63.8594365,19 C63.4131071,19 63.0569019,18.8768519 62.790821,18.6305556 C62.52474,18.3842593 62.3916995,18.0412037 62.3916995,17.6013889 L62.3916995,1.39861111 C62.3916995,0.958796296 62.52474,0.615740741 62.790821,0.369444444 C63.0569019,0.123148148 63.4131071,0 63.8594365,0 C64.2885994,0 64.640513,0.127546296 64.9151772,0.382638889 C65.1898415,0.637731481 65.3271736,0.976388889 65.3271736,1.39861111 L65.3271736,17.6013889 C65.3271736,18.0236111 65.1898415,18.3622685 64.9151772,18.6173611 C64.640513,18.8724537 64.2885994,19 63.8594365,19 Z" id="Path"></path>
                <path d="M70.7088761,18.9736111 C70.2625467,18.9736111 69.9106331,18.850463 69.6531354,18.6041667 C69.3956377,18.3578704 69.2668888,18.0148148 69.2668888,17.575 L69.2668888,7.96944444 C69.2668888,5.4712963 69.9621327,3.51851852 71.3526204,2.11111111 C72.7431081,0.703703704 74.6743411,0 77.1463193,0 C78.7599717,0 80.1590427,0.321064815 81.3435323,0.963194444 C82.5280218,1.60532407 83.4335555,2.52453704 84.0601333,3.72083333 C84.6867111,4.91712963 85,6.33333333 85,7.96944444 L85,17.575 C85,18.0148148 84.8712511,18.3578704 84.6137534,18.6041667 C84.3562557,18.850463 84.0043421,18.9736111 83.5580127,18.9736111 C83.1116833,18.9736111 82.7511865,18.8460648 82.4765223,18.5909722 C82.201858,18.3358796 82.0645259,17.9972222 82.0645259,17.575 L82.0645259,12.7194444 L72.2023629,12.7194444 L72.2023629,17.575 C72.2023629,17.9972222 72.0650308,18.3358796 71.7903666,18.5909722 C71.5157023,18.8460648 71.1552055,18.9736111 70.7088761,18.9736111 Z M82.0645259,10.3708333 L82.0645259,7.89027778 C82.0645259,6.09583333 81.6482379,4.73240741 80.8156619,3.8 C79.9830859,2.86759259 78.7599717,2.40138889 77.1463193,2.40138889 C75.5155004,2.40138889 74.2838029,2.86319444 73.4512269,3.78680556 C72.6186509,4.71041667 72.2023629,6.07824074 72.2023629,7.89027778 L72.2023629,10.3708333 L82.0645259,10.3708333 Z" id="Shape"></path>
            </g>
            <path d="M98.5145539,48.8630037 L87.5346411,57.0357702 C86.4041929,57.8772058 84.8056653,57.6429148 83.9642298,56.5124666 C83.2911929,55.608258 83.2911929,54.3695676 83.9642298,53.4653589 L92.1369963,42.4854461 C93.4558308,40.7136241 93.4558308,38.2863759 92.1369963,36.5145539 L83.9642298,25.5346411 C83.1227942,24.4041929 83.3570852,22.8056653 84.4875334,21.9642298 C85.391742,21.2911929 86.6304324,21.2911929 87.5346411,21.9642298 L98.5145539,30.1369963 C100.286376,31.4558308 102.713624,31.4558308 104.485446,30.1369963 L115.465359,21.9642298 C116.595807,21.1227942 118.194335,21.3570852 119.03577,22.4875334 C119.708807,23.391742 119.708807,24.6304324 119.03577,25.5346411 L110.863004,36.5145539 C109.544169,38.2863759 109.544169,40.7136241 110.863004,42.4854461 L119.03577,53.4653589 C119.877206,54.5958071 119.642915,56.1943347 118.512467,57.0357702 C117.608258,57.7088071 116.369568,57.7088071 115.465359,57.0357702 L104.485446,48.8630037 C102.713624,47.5441692 100.286376,47.5441692 98.5145539,48.8630037 Z" id="Star" fill="#000000"></path>
        </g>
    </g>
</svg>