<?xml version="1.0" encoding="UTF-8"?>
<svg width="182px" height="26px" viewBox="0 0 182 26" version="1.1" xmlns="http://www.w3.org/2000/svg" xmlns:xlink="http://www.w3.org/1999/xlink">
    <title>Artboard Copy 3</title>
    <g id="Artboard-Copy-3" stroke="none" stroke-width="1" fill="none" fill-rule="evenodd">
        <text id="FLE" font-family="Kodchasan-Bold, Kodchasan" font-size="35" font-weight="bold" letter-spacing="-1" fill="#000000">
            <tspan x="-3" y="26">FLE</tspan>
        </text>
        <text id="ABLE" font-family="Kodchasan-Bold, Kodchasan" font-size="35" font-weight="bold" fill="#860EC3">
            <tspan x="93" y="26">AB</tspan>
            <tspan x="144.45" y="26" letter-spacing="-1">LE</tspan>
        </text>
        <path d="M74.5145539,21.2359808 L66.7166216,27.0402783 C65.8437439,27.6899944 64.6094378,27.5090861 63.9597217,26.6362084 C63.440035,25.938022 63.440035,24.9815648 63.9597217,24.2833784 L69.7640192,16.4854461 C71.0828537,14.7136241 71.0828537,12.2863759 69.7640192,10.5145539 L63.9597217,2.71662159 C63.3100056,1.84374389 63.4909139,0.609437767 64.3637916,-0.0402782922 C65.061978,-0.55996499 66.0184352,-0.55996499 66.7166216,-0.0402782922 L74.5145539,5.76401919 C76.2863759,7.08285365 78.7136241,7.08285365 80.4854461,5.76401919 L88.2833784,-0.0402782922 C89.1562561,-0.689994351 90.3905622,-0.509086097 91.0402783,0.363791604 C91.559965,1.06197802 91.559965,2.01843517 91.0402783,2.71662159 L85.2359808,10.5145539 C83.9171463,12.2863759 83.9171463,14.7136241 85.2359808,16.4854461 L91.0402783,24.2833784 C91.6899944,25.1562561 91.5090861,26.3905622 90.6362084,27.0402783 C89.938022,27.559965 88.9815648,27.559965 88.2833784,27.0402783 L80.4854461,21.2359808 C78.7136241,19.9171463 76.2863759,19.9171463 74.5145539,21.2359808 Z" id="Star" fill="#000000"></path>
    </g>
</svg>