<?xml version="1.0" encoding="UTF-8"?>
<svg width="32px" height="32px" viewBox="0 0 32 32" version="1.1" xmlns="http://www.w3.org/2000/svg" xmlns:xlink="http://www.w3.org/1999/xlink">
    <title>Favicon</title>
    <g id="Favicon" stroke="none" stroke-width="1" fill="none" fill-rule="evenodd">
        <rect fill="#860EC3" x="0" y="0" width="32" height="32"></rect>
        <path d="M12.5145539,21.4281776 L8.25215549,24.6008428 C7.6654672,25.0375372 6.83585161,24.9159431 6.39915721,24.3292548 C6.0498596,23.859982 6.0498596,23.2171173 6.39915721,22.7478445 L9.57182239,18.4854461 C10.8906569,16.7136241 10.8906569,14.2863759 9.57182239,12.5145539 L6.39915721,8.25215549 C5.96246281,7.6654672 6.08405689,6.83585161 6.67074518,6.39915721 C7.14001802,6.0498596 7.78288265,6.0498596 8.25215549,6.39915721 L12.5145539,9.57182239 C14.2863759,10.8906569 16.7136241,10.8906569 18.4854461,9.57182239 L22.7478445,6.39915721 C23.3345328,5.96246281 24.1641484,6.08405689 24.6008428,6.67074518 C24.9501404,7.14001802 24.9501404,7.78288265 24.6008428,8.25215549 L21.4281776,12.5145539 C20.1093431,14.2863759 20.1093431,16.7136241 21.4281776,18.4854461 L24.6008428,22.7478445 C25.0375372,23.3345328 24.9159431,24.1641484 24.3292548,24.6008428 C23.859982,24.9501404 23.2171173,24.9501404 22.7478445,24.6008428 L18.4854461,21.4281776 C16.7136241,20.1093431 14.2863759,20.1093431 12.5145539,21.4281776 Z" id="Star" fill="#000000"></path>
    </g>
</svg>